<?xml version="1.0" standalone="no"?>
<svg xmlns="http://www.w3.org/2000/svg" width="1024pt" height="695pt" viewBox="0 0 1024 695"
    preserveAspectRatio="xMidYMid meet">
    <!-- Usamos la misma base de coordenadas para todo: -->
    <g transform="translate(0,695) scale(0.1,-0.1)">
        <defs>
            <path id="shape" d="M5975 6776 c-22 -7 -294 -115 -605 -239 -311 -124 -863 -343 -1228 -486
        -365 -144 -681 -270 -702 -281 -60 -31 -70 -55 -86 -197 -7 -71 -20 -193 -29 -273
        -8 -80 -20 -161 -27 -180 -19 -61 -58 -107 -134 -165 -41 -31 -140 -111 -220 -178
        -168 -140 -168 -132 5 -147 57 -5 106 -11 108 -14 2 -2 -5 -21 -16 -42 -12 -21
        -21 -47 -21 -58 0 -37 -41 -105 -77 -127 -20 -13 -89 -49 -154 -81 -234 -115 -328
        -251 -285 -416 28 -109 84 -170 195 -212 70 -27 108 -25 220 11 54 18 120 32 151 33
        l55 1 -1 -90 c-2 -110 -28 -326 -56 -454 -39 -181 -78 -277 -194 -473 -127 -215
        -219 -418 -259 -573 -10 -38 -25 -77 -34 -87 -29 -30 -646 -194 -1201 -318 -494
        -111 -975 -234 -978 -251 -2 -10 45 -41 150 -99 84 -45 216 -118 293 -161 165 -92
        215 -112 327 -135 97 -19 192 -55 338 -127 69 -34 104 -58 103 -67 -1 -8 -5 -26
        -8 -40 -5 -25 -2 -26 297 -124 326 -106 390 -119 528 -105 195 19 640 148 870 252
        114 51 139 57 277 62 74 3 214 16 311 30 253 34 320 39 369 26 23 -6 102 -49 175
        -95 431 -271 863 -480 1393 -673 216 -78 223 -79 430 -3 409 149 693 276 1010 449
        612 337 1051 658 1471 1076 369 368 405 427 371 621 -21 117 -37 305 -30 335 3 13
        31 60 63 104 110 153 150 263 150 415 0 94 -21 182 -61 263 -49 96 -85 144 -191 253
        -72 75 -98 109 -98 127 0 20 18 40 78 88 430 348 716 687 919 1090 112 222 129 299
        98 446 -17 82 -14 114 23 258 23 86 27 120 26 245 0 160 -19 261 -89 486 l-36 116
        -104 -109 c-163 -172 -202 -222 -251 -318 -26 -49 -54 -98 -62 -107 -20 -24 -69
        -23 -123 2 -86 39 -167 20 -219 -52 -17 -24 -42 -49 -55 -56 -14 -7 -97 -16 -202
        -22 -194 -11 -331 -25 -435 -45 -43 -8 -83 -10 -111 -4 -35 6 -1085 418 -2058 807
        -240 96 -298 110 -364 88z" />
            <!-- ClipPath: usa la silueta y regla evenodd -->
            <clipPath id="clipShape" clipPathUnits="userSpaceOnUse">
                <use href="#shape" fill-rule="evenodd" />
            </clipPath>
        </defs>
        <!-- Fondo verde (usa las mismas coords "grandes": 10240 x 6950 por el scale 0.1) -->
        <rect x="0" y="0" width="10240" height="6950" fill="#13C888" clip-path="url(#clipShape)" />

        <!-- Contorno negro por encima (sin rellenar para no tapar el verde) -->
        <use href="#shape" fill="none" stroke="#000" stroke-width="40" vector-effect="non-scaling-stroke" />
    </g>


    <!-- Rectángulo verde solo dentro del clip-path -->
    <rect width="1024" height="695" fill="#00ff00" clip-path="url(#clipShape)" />

    <g transform="translate(0,695) scale(0.1,-0.1)" fill="#000000" stroke="none">
        <path d="M5975 6776 c-22 -7 -294 -115 -605 -239 -311 -124 -863 -343 -1228
-486 -365 -144 -681 -270 -702 -281 -60 -31 -70 -55 -86 -197 -7 -71 -20 -193
-29 -273 -8 -80 -20 -161 -27 -180 -19 -61 -58 -107 -134 -165 -41 -31 -140
-111 -220 -178 -168 -140 -168 -132 5 -147 57 -5 106 -11 108 -14 2 -2 -5 -21
-16 -42 -12 -21 -21 -47 -21 -58 0 -37 -41 -105 -77 -127 -20 -13 -89 -49
-154 -81 -234 -115 -328 -251 -285 -416 28 -109 84 -170 195 -212 70 -27 108
-25 220 11 54 18 120 32 151 33 l55 1 -1 -90 c-2 -110 -28 -326 -56 -454 -39
-181 -78 -277 -194 -473 -127 -215 -219 -418 -259 -573 -10 -38 -25 -77 -34
-87 -29 -30 -646 -194 -1201 -318 -494 -111 -975 -234 -978 -251 -2 -10 45
-41 150 -99 84 -45 216 -118 293 -161 165 -92 215 -112 327 -135 97 -19 192
-55 338 -127 69 -34 104 -58 103 -67 -1 -8 -5 -26 -8 -40 -5 -25 -2 -26 297
-124 326 -106 390 -119 528 -105 195 19 640 148 870 252 114 51 139 57 277 62
74 3 214 16 311 30 253 34 320 39 369 26 23 -6 102 -49 175 -95 431 -271 863
-480 1393 -673 216 -78 223 -79 430 -3 409 149 693 276 1010 449 612 337 1051
658 1471 1076 369 368 405 427 371 621 -21 117 -37 305 -30 335 3 13 31 60 63
104 110 153 150 263 150 415 0 94 -21 182 -61 263 -49 96 -85 144 -191 253
-72 75 -98 109 -98 127 0 20 18 40 78 88 430 348 716 687 919 1090 112 222
129 299 98 446 -17 82 -14 114 23 258 23 86 27 120 26 245 0 160 -19 261 -89
486 l-36 116 -104 -109 c-163 -172 -202 -222 -251 -318 -26 -49 -54 -98 -62
-107 -20 -24 -69 -23 -123 2 -86 39 -167 20 -219 -52 -17 -24 -42 -49 -55 -56
-14 -7 -97 -16 -202 -22 -194 -11 -331 -25 -435 -45 -43 -8 -83 -10 -111 -4
-35 6 -1085 418 -2058 807 -240 96 -298 110 -364 88z m48 -487 c-13 -12 -326
-128 -333 -124 -4 3 -6 16 -5 30 2 14 -2 25 -8 25 -7 0 -43 -27 -82 -60 l-70
-59 -830 -332 c-456 -182 -837 -334 -847 -336 -19 -6 -141 88 -130 99 6 6
1568 620 2177 856 l130 50 3 -71 c2 -38 -1 -73 -5 -78z m3742 -570 c-30 -173
-55 -322 -55 -331 0 -17 3 -17 41 2 23 12 43 19 46 16 9 -9 -55 -172 -122
-311 -68 -142 -157 -282 -232 -365 -52 -57 -672 -614 -678 -608 -2 2 20 69 50
148 30 80 54 155 55 168 0 32 -36 65 -63 56 -40 -12 -76 -34 -132 -79 -57 -47
-114 -85 -127 -85 -31 0 26 139 120 292 87 142 95 266 18 286 -70 18 -176 -23
-419 -164 -386 -224 -513 -345 -464 -441 42 -80 289 -240 610 -394 70 -33 123
-73 299 -223 234 -200 260 -227 295 -302 83 -181 3 -381 -236 -587 -333 -288
-1214 -947 -1499 -1121 -75 -47 -139 -83 -141 -81 -2 2 47 76 109 165 62 89
110 163 108 165 -2 2 -242 -92 -533 -209 l-530 -214 -380 -91 -381 -90 -52 16
c-29 9 -52 20 -52 23 0 3 36 24 81 45 44 22 83 44 86 48 3 5 -3 17 -13 28 -16
18 -33 19 -358 19 -187 0 -336 4 -330 8 5 5 104 48 219 96 189 78 214 91 253
133 24 25 39 50 35 54 -4 4 -38 9 -76 11 l-67 3 80 63 c44 34 80 66 80 70 0 5
-10 13 -22 19 -20 9 -14 12 41 21 43 8 73 20 90 36 14 13 95 79 180 146 l154
122 249 68 c136 37 251 69 254 73 3 3 -8 26 -26 51 -17 25 -28 46 -23 46 4 0
48 -12 98 -26 l90 -25 195 66 c520 178 778 306 946 470 69 68 84 106 60 153
-39 76 -200 178 -453 287 -84 36 -157 65 -162 65 -20 0 -20 23 0 196 11 99 23
267 26 375 6 191 5 198 -21 290 -15 52 -45 124 -66 161 -22 36 -38 73 -35 80
3 8 -6 39 -19 69 -20 42 -23 56 -13 66 19 18 828 543 841 545 6 1 -65 5 -159
8 l-170 5 142 76 c136 73 156 80 485 177 l344 101 386 26 c213 14 398 25 412
25 18 0 37 15 70 56 l45 55 3 -132 3 -133 35 -9 c62 -16 132 7 196 65 46 43
65 72 113 172 32 67 71 153 87 193 16 39 30 68 32 64 2 -5 -22 -150 -53 -322z
m-4388 -156 c-2 -5 -54 -94 -115 -200 -118 -205 -118 -203 -46 -203 45 0 48 2
241 137 89 62 164 113 167 113 3 0 -16 -48 -41 -107 -25 -60 -47 -115 -50
-123 -3 -13 48 -24 305 -68 l309 -53 264 10 c145 6 283 13 307 15 23 2 42 1
42 -3 -1 -3 -54 -44 -120 -91 -65 -47 -119 -87 -119 -90 -1 -3 20 -18 47 -35
117 -74 259 -239 309 -360 61 -146 65 -431 12 -799 -18 -129 -26 -154 -96
-325 -41 -102 -77 -190 -80 -195 -3 -4 -18 16 -34 45 -16 29 -31 54 -33 56 -1
2 -39 -41 -83 -94 -207 -254 -490 -547 -651 -674 -42 -34 -304 -213 -582 -399
-304 -202 -630 -430 -820 -571 -173 -129 -321 -239 -329 -244 -16 -9 12 32
133 195 46 63 83 116 81 118 -2 2 -286 -111 -632 -251 -689 -279 -1106 -425
-1312 -458 -65 -10 -181 -4 -181 10 0 4 75 43 166 86 165 79 214 114 214 155
0 48 -56 50 -296 10 -252 -42 -544 -65 -544 -42 0 4 50 27 111 52 112 45 144
70 137 107 -7 38 -58 50 -250 57 -192 7 -641 35 -646 41 -5 4 -37 -5 1033 290
512 141 933 260 936 263 7 7 -24 238 -32 247 -3 2 -47 -25 -97 -62 -51 -36
-95 -63 -97 -61 -3 2 13 62 35 133 37 120 53 152 227 455 102 179 258 450 346
602 l159 277 -31 45 c-17 24 -31 46 -31 49 0 2 46 44 101 93 59 51 156 155
231 244 l128 154 88 31 c91 33 198 84 245 117 71 51 -26 47 -313 -12 -818
-169 -1314 -269 -1317 -266 -2 2 134 83 302 181 168 97 307 180 310 184 2 5
-18 26 -45 49 l-50 40 284 147 c284 147 356 194 356 236 0 33 -58 49 -218 60
-81 6 -155 14 -165 17 -11 5 110 36 310 81 288 65 370 79 678 117 193 24 355
44 361 44 6 0 116 97 244 215 214 198 249 229 237 208z m2318 -4083 c-3 -5
-11 -10 -16 -10 -6 0 -7 5 -4 10 3 6 11 10 16 10 6 0 7 -4 4 -10z m-120 -60
c-3 -5 -11 -10 -16 -10 -6 0 -7 5 -4 10 3 6 11 10 16 10 6 0 7 -4 4 -10z
m-2397 -196 c61 -77 94 -100 194 -133 84 -28 104 -31 198 -29 103 3 106 2 185
-35 44 -21 126 -66 183 -100 l102 -62 0 -97 c0 -90 -2 -98 -19 -98 -29 0 -187
54 -324 112 -219 92 -691 342 -857 454 l-35 24 35 1 c19 1 87 5 150 8 63 4
122 7 132 6 9 -1 34 -23 56 -51z" />
        <path d="M7758 2753 c6 -2 18 -2 25 0 6 3 1 5 -13 5 -14 0 -19 -2 -12 -5z" />
        <path d="M5212 4368 c-11 -18 -255 -429 -542 -913 -288 -484 -564 -950 -615
-1035 -52 -85 -92 -156 -91 -158 5 -4 383 202 586 321 605 353 920 585 1088
800 240 309 321 465 322 623 0 148 -182 327 -385 379 -39 10 -107 15 -201 15
l-142 0 -20 -32z" />
        <path d="M4048 2143 c7 -3 16 -2 19 1 4 3 -2 6 -13 5 -11 0 -14 -3 -6 -6z" />
    </g>
</svg>